<svg width="64" height="64" viewBox="0 0 64 64" fill="none" xmlns="http://www.w3.org/2000/svg">
  <!-- Background with earthy gradient inspired by Tepoztlán mountains -->
  <defs>
    <linearGradient id="bg" x1="0%" y1="0%" x2="100%" y2="100%">
      <stop offset="0%" style="stop-color:#ea580c;stop-opacity:1" />
      <stop offset="50%" style="stop-color:#f97316;stop-opacity:1" />
      <stop offset="100%" style="stop-color:#dc2626;stop-opacity:1" />
    </linearGradient>
    <linearGradient id="letter" x1="0%" y1="0%" x2="100%" y2="100%">
      <stop offset="0%" style="stop-color:#fef3c7;stop-opacity:1" />
      <stop offset="100%" style="stop-color:#fde68a;stop-opacity:1" />
    </linearGradient>
    <linearGradient id="mountain" x1="0%" y1="100%" x2="100%" y2="0%">
      <stop offset="0%" style="stop-color:#92400e;stop-opacity:0.3" />
      <stop offset="100%" style="stop-color:#a16207;stop-opacity:0.2" />
    </linearGradient>
  </defs>
  
  <!-- Background circle -->
  <circle cx="32" cy="32" r="32" fill="url(#bg)"/>
  
  <!-- Mountain silhouette at bottom -->
  <path d="M0 45 Q16 35 32 40 Q48 30 64 42 L64 64 L0 64 Z" fill="url(#mountain)"/>
  
  <!-- Letter T with more elegant design -->
  <path d="M14 15 L50 15 Q52 15 52 17 L52 21 Q52 23 50 23 L38 23 L38 47 Q38 49 36 49 L28 49 Q26 49 26 47 L26 23 L14 23 Q12 23 12 21 L12 17 Q12 15 14 15 Z" fill="url(#letter)" stroke="#fff" stroke-width="1.5" stroke-linejoin="round"/>
  
  <!-- Small decorative dots representing stars/mystical elements -->
  <circle cx="18" cy="8" r="1.5" fill="#fef3c7" opacity="0.8"/>
  <circle cx="46" cy="10" r="1" fill="#fef3c7" opacity="0.6"/>
  <circle cx="52" cy="52" r="1.2" fill="#fef3c7" opacity="0.7"/>
</svg>